<svg xmlns="http://www.w3.org/2000/svg" xmlns:xlink="http://www.w3.org/1999/xlink" width="120" zoomAndPan="magnify" viewBox="0 0 90 89.999999" height="120" preserveAspectRatio="xMidYMid meet" version="1.0"><defs><clipPath id="5ebcba646d"><path d="M 0 0 L 89.46875 0 L 89.46875 89.46875 L 0 89.46875 Z M 0 0 " clip-rule="nonzero"/></clipPath><clipPath id="b69e0d7493"><path d="M 44.734375 0 C 20.027344 0 0 20.027344 0 44.734375 C 0 69.441406 20.027344 89.46875 44.734375 89.46875 C 69.441406 89.46875 89.46875 69.441406 89.46875 44.734375 C 89.46875 20.027344 69.441406 0 44.734375 0 Z M 44.734375 0 " clip-rule="nonzero"/></clipPath><clipPath id="74c782c7af"><path d="M 6.773438 6.773438 L 82.695312 6.773438 L 82.695312 82.695312 L 6.773438 82.695312 Z M 6.773438 6.773438 " clip-rule="nonzero"/></clipPath><clipPath id="cb01e2b00d"><path d="M 44.734375 6.773438 C 23.769531 6.773438 6.773438 23.769531 6.773438 44.734375 C 6.773438 65.699219 23.769531 82.695312 44.734375 82.695312 C 65.699219 82.695312 82.695312 65.699219 82.695312 44.734375 C 82.695312 23.769531 65.699219 6.773438 44.734375 6.773438 Z M 44.734375 6.773438 " clip-rule="nonzero"/></clipPath><clipPath id="5bd3e5bb72"><path d="M 12.773438 12.773438 L 76.695312 12.773438 L 76.695312 76.695312 L 12.773438 76.695312 Z M 12.773438 12.773438 " clip-rule="nonzero"/></clipPath><clipPath id="2968d830a7"><path d="M 44.734375 12.773438 C 27.082031 12.773438 12.773438 27.082031 12.773438 44.734375 C 12.773438 62.386719 27.082031 76.695312 44.734375 76.695312 C 62.386719 76.695312 76.695312 62.386719 76.695312 44.734375 C 76.695312 27.082031 62.386719 12.773438 44.734375 12.773438 Z M 44.734375 12.773438 " clip-rule="nonzero"/></clipPath><clipPath id="d995616588"><path d="M 18.726562 18.726562 L 70.742188 18.726562 L 70.742188 70.742188 L 18.726562 70.742188 Z M 18.726562 18.726562 " clip-rule="nonzero"/></clipPath><clipPath id="fec89e20f5"><path d="M 44.734375 18.726562 C 30.371094 18.726562 18.726562 30.371094 18.726562 44.734375 C 18.726562 59.097656 30.371094 70.742188 44.734375 70.742188 C 59.097656 70.742188 70.742188 59.097656 70.742188 44.734375 C 70.742188 30.371094 59.097656 18.726562 44.734375 18.726562 Z M 44.734375 18.726562 " clip-rule="nonzero"/></clipPath><clipPath id="ebd231aa71"><path d="M 25.234375 25 L 64.234375 25 L 64.234375 65.027344 L 25.234375 65.027344 Z M 25.234375 25 " clip-rule="nonzero"/></clipPath><clipPath id="ff851d7ec1"><path d="M 48 24.527344 L 58 24.527344 L 58 33 L 48 33 Z M 48 24.527344 " clip-rule="nonzero"/></clipPath></defs><g clip-path="url(#5ebcba646d)"><g clip-path="url(#b69e0d7493)"><path fill="#ffe6e6" d="M 0 0 L 89.46875 0 L 89.46875 89.46875 L 0 89.46875 Z M 0 0 " fill-opacity="1" fill-rule="nonzero"/></g></g><g clip-path="url(#74c782c7af)"><g clip-path="url(#cb01e2b00d)"><path fill="#ffb3b3" d="M 6.773438 6.773438 L 82.695312 6.773438 L 82.695312 82.695312 L 6.773438 82.695312 Z M 6.773438 6.773438 " fill-opacity="1" fill-rule="nonzero"/></g></g><g clip-path="url(#5bd3e5bb72)"><g clip-path="url(#2968d830a7)"><path fill="#ff8080" d="M 12.773438 12.773438 L 76.695312 12.773438 L 76.695312 76.695312 L 12.773438 76.695312 Z M 12.773438 12.773438 " fill-opacity="1" fill-rule="nonzero"/></g></g><g clip-path="url(#d995616588)"><g clip-path="url(#fec89e20f5)"><path fill="#ff0082" d="M 18.726562 18.726562 L 70.742188 18.726562 L 70.742188 70.742188 L 18.726562 70.742188 Z M 18.726562 18.726562 " fill-opacity="1" fill-rule="nonzero"/></g></g><path fill="#ffffff" d="M 62.695312 41.878906 C 62.253906 41.878906 61.851562 41.585938 61.730469 41.140625 L 61.726562 41.117188 C 61.582031 40.585938 61.898438 40.035156 62.429688 39.890625 C 62.960938 39.746094 63.511719 40.0625 63.65625 40.597656 L 63.660156 40.621094 C 63.804688 41.152344 63.488281 41.703125 62.957031 41.847656 C 62.867188 41.871094 62.78125 41.878906 62.695312 41.878906 Z M 61.210938 38.191406 C 60.851562 38.191406 60.5 37.992188 60.324219 37.648438 L 60.3125 37.628906 C 60.058594 37.140625 60.25 36.535156 60.742188 36.28125 C 61.230469 36.027344 61.832031 36.21875 62.085938 36.707031 L 62.097656 36.730469 C 62.351562 37.21875 62.160156 37.824219 61.667969 38.078125 C 61.523438 38.152344 61.367188 38.191406 61.210938 38.191406 Z M 59.035156 34.863281 C 58.773438 34.863281 58.515625 34.765625 58.320312 34.5625 L 58.308594 34.550781 C 57.921875 34.15625 57.925781 33.523438 58.316406 33.136719 C 58.710938 32.746094 59.34375 32.75 59.730469 33.144531 L 59.75 33.164062 C 60.136719 33.5625 60.125 34.195312 59.730469 34.582031 C 59.539062 34.769531 59.285156 34.863281 59.035156 34.863281 Z M 59.035156 34.863281 " fill-opacity="1" fill-rule="nonzero"/><path fill="#ffffff" d="M 43.796875 45.882812 L 43.796875 48.375 L 34.410156 48.375 C 34.511719 47.433594 34.816406 46.539062 35.324219 45.695312 C 35.832031 44.851562 36.835938 43.734375 38.335938 42.339844 C 39.542969 41.214844 40.28125 40.449219 40.554688 40.046875 C 40.925781 39.496094 41.109375 38.945312 41.109375 38.40625 C 41.109375 37.808594 40.949219 37.347656 40.628906 37.027344 C 40.304688 36.703125 39.863281 36.542969 39.296875 36.542969 C 38.738281 36.542969 38.292969 36.710938 37.964844 37.050781 C 37.632812 37.386719 37.445312 37.949219 37.394531 38.730469 L 34.726562 38.464844 C 34.882812 36.984375 35.382812 35.925781 36.21875 35.28125 C 37.058594 34.640625 38.105469 34.320312 39.363281 34.320312 C 40.742188 34.320312 41.824219 34.691406 42.613281 35.4375 C 43.402344 36.179688 43.796875 37.105469 43.796875 38.214844 C 43.796875 38.84375 43.683594 39.445312 43.457031 40.015625 C 43.230469 40.585938 42.875 41.183594 42.386719 41.804688 C 42.0625 42.21875 41.476562 42.816406 40.632812 43.589844 C 39.789062 44.367188 39.253906 44.882812 39.027344 45.136719 C 38.800781 45.394531 38.617188 45.640625 38.480469 45.882812 Z M 43.796875 45.882812 " fill-opacity="1" fill-rule="nonzero"/><path fill="#ffffff" d="M 50.855469 48.375 L 50.855469 45.558594 L 45.136719 45.558594 L 45.136719 43.210938 L 51.199219 34.320312 L 53.445312 34.320312 L 53.445312 43.199219 L 55.179688 43.199219 L 55.179688 45.558594 L 53.445312 45.558594 L 53.445312 48.375 Z M 50.855469 43.199219 L 50.855469 38.414062 L 47.644531 43.199219 Z M 50.855469 43.199219 " fill-opacity="1" fill-rule="nonzero"/><path fill="#ffffff" d="M 34 55.988281 L 34 51.523438 L 34.898438 51.523438 L 34.898438 53.28125 L 36.660156 53.28125 L 36.660156 51.523438 L 37.558594 51.523438 L 37.558594 55.988281 L 36.660156 55.988281 L 36.660156 54.035156 L 34.898438 54.035156 L 34.898438 55.988281 Z M 34 55.988281 " fill-opacity="1" fill-rule="nonzero"/><path fill="#ffffff" d="M 38.308594 53.78125 C 38.308594 53.328125 38.375 52.945312 38.511719 52.636719 C 38.613281 52.410156 38.75 52.207031 38.925781 52.027344 C 39.101562 51.84375 39.292969 51.710938 39.5 51.625 C 39.777344 51.507812 40.097656 51.449219 40.460938 51.449219 C 41.117188 51.449219 41.640625 51.652344 42.035156 52.058594 C 42.429688 52.46875 42.625 53.035156 42.625 53.761719 C 42.625 54.480469 42.429688 55.046875 42.039062 55.453125 C 41.648438 55.859375 41.128906 56.0625 40.472656 56.0625 C 39.8125 56.0625 39.285156 55.859375 38.894531 55.457031 C 38.503906 55.050781 38.308594 54.492188 38.308594 53.78125 Z M 39.234375 53.753906 C 39.234375 54.257812 39.351562 54.640625 39.582031 54.902344 C 39.816406 55.164062 40.113281 55.292969 40.46875 55.292969 C 40.828125 55.292969 41.121094 55.164062 41.351562 54.90625 C 41.582031 54.644531 41.695312 54.257812 41.695312 53.742188 C 41.695312 53.230469 41.585938 52.847656 41.359375 52.597656 C 41.136719 52.34375 40.839844 52.21875 40.46875 52.21875 C 40.097656 52.21875 39.800781 52.34375 39.574219 52.601562 C 39.347656 52.855469 39.234375 53.238281 39.234375 53.753906 Z M 39.234375 53.753906 " fill-opacity="1" fill-rule="nonzero"/><path fill="#ffffff" d="M 43.320312 51.523438 L 44.21875 51.523438 L 44.21875 53.941406 C 44.21875 54.324219 44.230469 54.574219 44.253906 54.6875 C 44.292969 54.871094 44.382812 55.015625 44.527344 55.125 C 44.671875 55.238281 44.871094 55.292969 45.121094 55.292969 C 45.378906 55.292969 45.570312 55.242188 45.699219 55.136719 C 45.828125 55.03125 45.90625 54.902344 45.933594 54.75 C 45.960938 54.597656 45.972656 54.347656 45.972656 53.992188 L 45.972656 51.523438 L 46.871094 51.523438 L 46.871094 53.867188 C 46.871094 54.402344 46.847656 54.78125 46.800781 55.003906 C 46.75 55.226562 46.660156 55.410156 46.53125 55.5625 C 46.398438 55.714844 46.226562 55.835938 46.007812 55.925781 C 45.789062 56.019531 45.503906 56.0625 45.148438 56.0625 C 44.726562 56.0625 44.402344 56.011719 44.183594 55.914062 C 43.960938 55.816406 43.789062 55.6875 43.660156 55.53125 C 43.535156 55.375 43.449219 55.210938 43.410156 55.035156 C 43.351562 54.78125 43.320312 54.402344 43.320312 53.90625 Z M 43.320312 51.523438 " fill-opacity="1" fill-rule="nonzero"/><path fill="#ffffff" d="M 47.824219 55.988281 L 47.824219 51.523438 L 49.714844 51.523438 C 50.191406 51.523438 50.535156 51.5625 50.75 51.644531 C 50.96875 51.722656 51.140625 51.867188 51.269531 52.070312 C 51.398438 52.277344 51.464844 52.511719 51.464844 52.773438 C 51.464844 53.109375 51.367188 53.386719 51.167969 53.605469 C 50.972656 53.824219 50.679688 53.960938 50.289062 54.015625 C 50.484375 54.132812 50.644531 54.253906 50.769531 54.390625 C 50.898438 54.527344 51.066406 54.769531 51.28125 55.117188 L 51.824219 55.988281 L 50.75 55.988281 L 50.101562 55.015625 C 49.871094 54.667969 49.710938 54.449219 49.625 54.359375 C 49.542969 54.269531 49.453125 54.207031 49.355469 54.175781 C 49.261719 54.140625 49.109375 54.125 48.902344 54.125 L 48.722656 54.125 L 48.722656 55.988281 Z M 48.722656 53.410156 L 49.386719 53.410156 C 49.816406 53.410156 50.085938 53.394531 50.195312 53.355469 C 50.300781 53.320312 50.386719 53.257812 50.445312 53.167969 C 50.507812 53.078125 50.539062 52.96875 50.539062 52.832031 C 50.539062 52.683594 50.496094 52.5625 50.417969 52.46875 C 50.335938 52.378906 50.226562 52.320312 50.078125 52.292969 C 50.007812 52.285156 49.789062 52.277344 49.421875 52.277344 L 48.722656 52.277344 Z M 48.722656 53.410156 " fill-opacity="1" fill-rule="nonzero"/><path fill="#ffffff" d="M 52.082031 54.535156 L 52.957031 54.449219 C 53.011719 54.742188 53.117188 54.960938 53.277344 55.097656 C 53.441406 55.234375 53.65625 55.304688 53.929688 55.304688 C 54.21875 55.304688 54.4375 55.242188 54.585938 55.121094 C 54.730469 54.996094 54.804688 54.855469 54.804688 54.691406 C 54.804688 54.585938 54.773438 54.496094 54.710938 54.421875 C 54.652344 54.347656 54.542969 54.28125 54.390625 54.226562 C 54.285156 54.191406 54.042969 54.125 53.667969 54.03125 C 53.1875 53.914062 52.847656 53.765625 52.65625 53.589844 C 52.382812 53.34375 52.246094 53.046875 52.246094 52.691406 C 52.246094 52.464844 52.308594 52.253906 52.4375 52.054688 C 52.566406 51.855469 52.75 51.707031 52.992188 51.601562 C 53.234375 51.5 53.527344 51.449219 53.871094 51.449219 C 54.429688 51.449219 54.847656 51.570312 55.132812 51.816406 C 55.414062 52.0625 55.5625 52.390625 55.578125 52.800781 L 54.675781 52.839844 C 54.640625 52.609375 54.554688 52.445312 54.429688 52.34375 C 54.304688 52.242188 54.113281 52.195312 53.859375 52.195312 C 53.597656 52.195312 53.394531 52.246094 53.246094 52.355469 C 53.152344 52.425781 53.105469 52.515625 53.105469 52.632812 C 53.105469 52.738281 53.148438 52.828125 53.238281 52.902344 C 53.351562 53 53.625 53.097656 54.0625 53.203125 C 54.5 53.304688 54.824219 53.410156 55.035156 53.523438 C 55.242188 53.632812 55.40625 53.785156 55.527344 53.976562 C 55.644531 54.167969 55.703125 54.40625 55.703125 54.6875 C 55.703125 54.941406 55.632812 55.183594 55.492188 55.40625 C 55.347656 55.628906 55.148438 55.792969 54.890625 55.902344 C 54.628906 56.011719 54.308594 56.066406 53.921875 56.066406 C 53.359375 56.066406 52.925781 55.933594 52.625 55.675781 C 52.324219 55.414062 52.140625 55.035156 52.082031 54.535156 Z M 52.082031 54.535156 " fill-opacity="1" fill-rule="nonzero"/><g clip-path="url(#ebd231aa71)"><path fill="#ffffff" d="M 44.734375 65.027344 C 42.101562 65.027344 39.550781 64.507812 37.144531 63.488281 C 34.824219 62.503906 32.738281 61.097656 30.949219 59.304688 C 29.160156 57.511719 27.753906 55.421875 26.773438 53.09375 C 25.753906 50.683594 25.238281 48.125 25.238281 45.488281 C 25.238281 42.851562 25.753906 40.292969 26.773438 37.882812 C 27.753906 35.554688 29.160156 33.464844 30.949219 31.671875 C 32.738281 29.878906 34.824219 28.472656 37.144531 27.488281 C 39.550781 26.46875 42.101562 25.949219 44.730469 25.949219 C 47.363281 25.949219 49.914062 26.46875 52.320312 27.488281 C 52.402344 27.523438 52.488281 27.558594 52.570312 27.59375 C 53.179688 27.863281 53.457031 28.578125 53.191406 29.191406 C 52.921875 29.800781 52.210938 30.078125 51.597656 29.8125 C 51.527344 29.777344 51.453125 29.746094 51.378906 29.714844 C 49.273438 28.824219 47.039062 28.371094 44.734375 28.371094 C 42.425781 28.371094 40.191406 28.824219 38.085938 29.714844 C 36.050781 30.578125 34.226562 31.8125 32.65625 33.382812 C 31.089844 34.957031 29.859375 36.785156 28.996094 38.824219 C 28.105469 40.9375 27.65625 43.175781 27.65625 45.488281 C 27.65625 47.796875 28.105469 50.039062 28.996094 52.152344 C 29.855469 54.191406 31.089844 56.019531 32.65625 57.59375 C 34.226562 59.164062 36.050781 60.398438 38.085938 61.261719 C 40.191406 62.152344 42.425781 62.605469 44.734375 62.605469 C 47.039062 62.605469 49.273438 62.152344 51.378906 61.261719 C 53.414062 60.398438 55.238281 59.164062 56.808594 57.59375 C 58.375 56.019531 59.609375 54.191406 60.46875 52.152344 C 61.359375 50.039062 61.808594 47.796875 61.808594 45.488281 C 61.808594 44.820312 62.351562 44.277344 63.015625 44.277344 C 63.683594 44.277344 64.226562 44.820312 64.226562 45.488281 C 64.226562 48.125 63.710938 50.683594 62.691406 53.09375 C 61.710938 55.421875 60.304688 57.511719 58.515625 59.304688 C 56.726562 61.097656 54.640625 62.503906 52.320312 63.488281 C 49.914062 64.507812 47.363281 65.027344 44.734375 65.027344 Z M 44.734375 65.027344 " fill-opacity="1" fill-rule="nonzero"/></g><g clip-path="url(#ff851d7ec1)"><path fill="#ffffff" d="M 49.058594 32.117188 L 56.882812 32.492188 C 57.230469 32.507812 57.464844 32.144531 57.304688 31.835938 L 53.71875 24.855469 C 53.558594 24.546875 53.128906 24.527344 52.941406 24.816406 L 48.703125 31.421875 C 48.515625 31.714844 48.714844 32.097656 49.058594 32.117188 Z M 49.058594 32.117188 " fill-opacity="1" fill-rule="nonzero"/></g></svg>