<svg xmlns="http://www.w3.org/2000/svg" xmlns:xlink="http://www.w3.org/1999/xlink" width="113" zoomAndPan="magnify" viewBox="0 0 84.75 84.749999" height="113" preserveAspectRatio="xMidYMid meet" version="1.0"><defs><clipPath id="58f468abf3"><path d="M 0 0 L 84.488281 0 L 84.488281 84.488281 L 0 84.488281 Z M 0 0 " clip-rule="nonzero"/></clipPath><clipPath id="374de64a3a"><path d="M 42.242188 0 C 18.914062 0 0 18.914062 0 42.242188 C 0 65.574219 18.914062 84.488281 42.242188 84.488281 C 65.574219 84.488281 84.488281 65.574219 84.488281 42.242188 C 84.488281 18.914062 65.574219 0 42.242188 0 Z M 42.242188 0 " clip-rule="nonzero"/></clipPath><clipPath id="da3a7b611b"><path d="M 5.4375 6.078125 L 78.449219 6.078125 L 78.449219 79.089844 L 5.4375 79.089844 Z M 5.4375 6.078125 " clip-rule="nonzero"/></clipPath><clipPath id="2cfe0a14c3"><path d="M 41.941406 6.078125 C 21.78125 6.078125 5.4375 22.421875 5.4375 42.582031 C 5.4375 62.746094 21.78125 79.089844 41.941406 79.089844 C 62.105469 79.089844 78.449219 62.746094 78.449219 42.582031 C 78.449219 22.421875 62.105469 6.078125 41.941406 6.078125 Z M 41.941406 6.078125 " clip-rule="nonzero"/></clipPath><clipPath id="bb16196382"><path d="M 11.082031 11.070312 L 74.109375 11.070312 L 74.109375 74.097656 L 11.082031 74.097656 Z M 11.082031 11.070312 " clip-rule="nonzero"/></clipPath><clipPath id="e87d9f1f27"><path d="M 42.59375 11.070312 C 25.191406 11.070312 11.082031 25.179688 11.082031 42.582031 C 11.082031 59.988281 25.191406 74.097656 42.59375 74.097656 C 60 74.097656 74.109375 59.988281 74.109375 42.582031 C 74.109375 25.179688 60 11.070312 42.59375 11.070312 Z M 42.59375 11.070312 " clip-rule="nonzero"/></clipPath><clipPath id="c11ce0b160"><path d="M 16.011719 16.3125 L 67.871094 16.3125 L 67.871094 68.171875 L 16.011719 68.171875 Z M 16.011719 16.3125 " clip-rule="nonzero"/></clipPath><clipPath id="08b2b72b47"><path d="M 41.941406 16.3125 C 27.621094 16.3125 16.011719 27.921875 16.011719 42.242188 C 16.011719 56.5625 27.621094 68.171875 41.941406 68.171875 C 56.261719 68.171875 67.871094 56.5625 67.871094 42.242188 C 67.871094 27.921875 56.261719 16.3125 41.941406 16.3125 Z M 41.941406 16.3125 " clip-rule="nonzero"/></clipPath><clipPath id="e4f12158be"><path d="M 23.464844 26.421875 L 60.855469 26.421875 L 60.855469 57.832031 L 23.464844 57.832031 Z M 23.464844 26.421875 " clip-rule="nonzero"/></clipPath><clipPath id="224995aaf4"><path d="M 37.765625 37.019531 L 42.253906 37.019531 L 42.253906 41.503906 L 37.765625 41.503906 Z M 37.765625 37.019531 " clip-rule="nonzero"/></clipPath><clipPath id="a66a9e3076"><path d="M 45.367188 37.019531 L 49.855469 37.019531 L 49.855469 41.503906 L 45.367188 41.503906 Z M 45.367188 37.019531 " clip-rule="nonzero"/></clipPath><clipPath id="418fa8363b"><path d="M 52.972656 37.019531 L 57.457031 37.019531 L 57.457031 41.503906 L 52.972656 41.503906 Z M 52.972656 37.019531 " clip-rule="nonzero"/></clipPath></defs><g clip-path="url(#58f468abf3)"><g clip-path="url(#374de64a3a)"><path fill="#ffe6e6" d="M 0 0 L 84.488281 0 L 84.488281 84.488281 L 0 84.488281 Z M 0 0 " fill-opacity="1" fill-rule="nonzero"/></g></g><g clip-path="url(#da3a7b611b)"><g clip-path="url(#2cfe0a14c3)"><path fill="#ffb3b3" d="M 5.4375 6.078125 L 78.449219 6.078125 L 78.449219 79.089844 L 5.4375 79.089844 Z M 5.4375 6.078125 " fill-opacity="1" fill-rule="nonzero"/></g></g><g clip-path="url(#bb16196382)"><g clip-path="url(#e87d9f1f27)"><path fill="#ff8080" d="M 11.082031 11.070312 L 74.109375 11.070312 L 74.109375 74.097656 L 11.082031 74.097656 Z M 11.082031 11.070312 " fill-opacity="1" fill-rule="nonzero"/></g></g><g clip-path="url(#c11ce0b160)"><g clip-path="url(#08b2b72b47)"><path fill="#ff0082" d="M 16.011719 16.3125 L 67.871094 16.3125 L 67.871094 68.171875 L 16.011719 68.171875 Z M 16.011719 16.3125 " fill-opacity="1" fill-rule="nonzero"/></g></g><g clip-path="url(#e4f12158be)"><path fill="#ffffff" d="M 60.097656 46.90625 C 60.097656 48.5625 58.75 49.914062 57.09375 49.914062 L 39.601562 49.914062 C 39.429688 49.914062 39.261719 49.964844 39.121094 50.0625 L 28.632812 57.273438 C 28.449219 57.398438 28.285156 57.304688 28.238281 57.273438 C 28.195312 57.238281 28.050781 57.117188 28.109375 56.902344 L 29.734375 50.988281 C 29.804688 50.730469 29.75 50.460938 29.589844 50.246094 C 29.429688 50.035156 29.183594 49.914062 28.917969 49.914062 L 27.390625 49.914062 C 25.734375 49.910156 24.386719 48.5625 24.386719 46.90625 L 24.386719 30.144531 C 24.386719 28.488281 25.734375 27.136719 27.390625 27.136719 L 57.09375 27.136719 C 58.75 27.136719 60.097656 28.488281 60.097656 30.144531 Z M 57.09375 26.410156 L 27.390625 26.410156 C 25.332031 26.410156 23.660156 28.085938 23.660156 30.144531 L 23.660156 46.90625 C 23.660156 48.960938 25.332031 50.640625 27.390625 50.640625 L 28.917969 50.640625 C 28.96875 50.640625 28.996094 50.671875 29.011719 50.6875 C 29.023438 50.707031 29.042969 50.742188 29.03125 50.792969 L 27.40625 56.707031 C 27.285156 57.148438 27.449219 57.601562 27.816406 57.863281 C 28.003906 58 28.222656 58.066406 28.4375 58.066406 C 28.648438 58.066406 28.859375 58 29.042969 57.875 L 39.601562 50.640625 L 57.09375 50.640625 C 59.152344 50.640625 60.828125 48.964844 60.828125 46.90625 L 60.828125 30.144531 C 60.828125 28.085938 59.152344 26.410156 57.09375 26.410156 " fill-opacity="1" fill-rule="nonzero"/></g><g clip-path="url(#224995aaf4)"><path fill="#ffffff" d="M 42.253906 39.261719 C 42.253906 39.558594 42.195312 39.84375 42.082031 40.121094 C 41.96875 40.394531 41.804688 40.636719 41.59375 40.847656 C 41.386719 41.058594 41.140625 41.21875 40.867188 41.332031 C 40.59375 41.449219 40.304688 41.503906 40.007812 41.503906 C 39.710938 41.503906 39.425781 41.449219 39.148438 41.332031 C 38.875 41.21875 38.632812 41.058594 38.421875 40.847656 C 38.210938 40.636719 38.050781 40.394531 37.9375 40.121094 C 37.824219 39.84375 37.765625 39.558594 37.765625 39.261719 C 37.765625 38.964844 37.824219 38.675781 37.9375 38.402344 C 38.050781 38.128906 38.210938 37.886719 38.421875 37.675781 C 38.632812 37.464844 38.875 37.300781 39.148438 37.1875 C 39.425781 37.074219 39.710938 37.019531 40.007812 37.019531 C 40.304688 37.019531 40.59375 37.074219 40.867188 37.1875 C 41.140625 37.300781 41.386719 37.464844 41.59375 37.675781 C 41.804688 37.886719 41.96875 38.128906 42.082031 38.402344 C 42.195312 38.675781 42.253906 38.964844 42.253906 39.261719 Z M 42.253906 39.261719 " fill-opacity="1" fill-rule="nonzero"/></g><g clip-path="url(#a66a9e3076)"><path fill="#ffffff" d="M 49.855469 39.261719 C 49.855469 39.558594 49.796875 39.84375 49.683594 40.121094 C 49.570312 40.394531 49.410156 40.636719 49.199219 40.847656 C 48.988281 41.058594 48.746094 41.21875 48.46875 41.332031 C 48.195312 41.449219 47.910156 41.503906 47.613281 41.503906 C 47.316406 41.503906 47.027344 41.449219 46.753906 41.332031 C 46.480469 41.21875 46.234375 41.058594 46.027344 40.847656 C 45.816406 40.636719 45.652344 40.394531 45.539062 40.121094 C 45.425781 39.84375 45.367188 39.558594 45.367188 39.261719 C 45.367188 38.964844 45.425781 38.675781 45.539062 38.402344 C 45.652344 38.128906 45.816406 37.886719 46.027344 37.675781 C 46.234375 37.464844 46.480469 37.300781 46.753906 37.1875 C 47.027344 37.074219 47.316406 37.019531 47.613281 37.019531 C 47.910156 37.019531 48.195312 37.074219 48.46875 37.1875 C 48.746094 37.300781 48.988281 37.464844 49.199219 37.675781 C 49.410156 37.886719 49.570312 38.128906 49.683594 38.402344 C 49.796875 38.675781 49.855469 38.964844 49.855469 39.261719 Z M 49.855469 39.261719 " fill-opacity="1" fill-rule="nonzero"/></g><g clip-path="url(#418fa8363b)"><path fill="#ffffff" d="M 57.457031 39.261719 C 57.457031 39.558594 57.402344 39.84375 57.289062 40.121094 C 57.175781 40.394531 57.011719 40.636719 56.800781 40.847656 C 56.589844 41.058594 56.347656 41.21875 56.074219 41.332031 C 55.800781 41.449219 55.511719 41.503906 55.214844 41.503906 C 54.917969 41.503906 54.632812 41.449219 54.355469 41.332031 C 54.082031 41.21875 53.839844 41.058594 53.628906 40.847656 C 53.417969 40.636719 53.257812 40.394531 53.144531 40.121094 C 53.027344 39.84375 52.972656 39.558594 52.972656 39.261719 C 52.972656 38.964844 53.027344 38.675781 53.144531 38.402344 C 53.257812 38.128906 53.417969 37.886719 53.628906 37.675781 C 53.839844 37.464844 54.082031 37.300781 54.355469 37.1875 C 54.632812 37.074219 54.917969 37.019531 55.214844 37.019531 C 55.511719 37.019531 55.800781 37.074219 56.074219 37.1875 C 56.347656 37.300781 56.589844 37.464844 56.800781 37.675781 C 57.011719 37.886719 57.175781 38.128906 57.289062 38.402344 C 57.402344 38.675781 57.457031 38.964844 57.457031 39.261719 Z M 57.457031 39.261719 " fill-opacity="1" fill-rule="nonzero"/></g></svg>