<svg xmlns="http://www.w3.org/2000/svg" xmlns:xlink="http://www.w3.org/1999/xlink" width="113" zoomAndPan="magnify" viewBox="0 0 84.75 84.749999" height="113" preserveAspectRatio="xMidYMid meet" version="1.0"><defs><clipPath id="b40f5b65e1"><path d="M 0 0 L 84.488281 0 L 84.488281 84.488281 L 0 84.488281 Z M 0 0 " clip-rule="nonzero"/></clipPath><clipPath id="51232a92fe"><path d="M 42.242188 0 C 18.914062 0 0 18.914062 0 42.242188 C 0 65.574219 18.914062 84.488281 42.242188 84.488281 C 65.574219 84.488281 84.488281 65.574219 84.488281 42.242188 C 84.488281 18.914062 65.574219 0 42.242188 0 Z M 42.242188 0 " clip-rule="nonzero"/></clipPath><clipPath id="f4e5772893"><path d="M 5.4375 6.078125 L 78.449219 6.078125 L 78.449219 79.089844 L 5.4375 79.089844 Z M 5.4375 6.078125 " clip-rule="nonzero"/></clipPath><clipPath id="d302c249f8"><path d="M 41.941406 6.078125 C 21.78125 6.078125 5.4375 22.421875 5.4375 42.582031 C 5.4375 62.746094 21.78125 79.089844 41.941406 79.089844 C 62.105469 79.089844 78.449219 62.746094 78.449219 42.582031 C 78.449219 22.421875 62.105469 6.078125 41.941406 6.078125 Z M 41.941406 6.078125 " clip-rule="nonzero"/></clipPath><clipPath id="47ce24cf31"><path d="M 11.082031 11.070312 L 74.109375 11.070312 L 74.109375 74.097656 L 11.082031 74.097656 Z M 11.082031 11.070312 " clip-rule="nonzero"/></clipPath><clipPath id="ea4e664dae"><path d="M 42.59375 11.070312 C 25.191406 11.070312 11.082031 25.179688 11.082031 42.582031 C 11.082031 59.988281 25.191406 74.097656 42.59375 74.097656 C 60 74.097656 74.109375 59.988281 74.109375 42.582031 C 74.109375 25.179688 60 11.070312 42.59375 11.070312 Z M 42.59375 11.070312 " clip-rule="nonzero"/></clipPath><clipPath id="8e05165b48"><path d="M 16.011719 16.3125 L 67.871094 16.3125 L 67.871094 68.171875 L 16.011719 68.171875 Z M 16.011719 16.3125 " clip-rule="nonzero"/></clipPath><clipPath id="7cfa4f590c"><path d="M 41.941406 16.3125 C 27.621094 16.3125 16.011719 27.921875 16.011719 42.242188 C 16.011719 56.5625 27.621094 68.171875 41.941406 68.171875 C 56.261719 68.171875 67.871094 56.5625 67.871094 42.242188 C 67.871094 27.921875 56.261719 16.3125 41.941406 16.3125 Z M 41.941406 16.3125 " clip-rule="nonzero"/></clipPath><clipPath id="c212bee761"><path d="M 43 27.542969 L 63.519531 27.542969 L 63.519531 50 L 43 50 Z M 43 27.542969 " clip-rule="nonzero"/></clipPath><clipPath id="3a12538a7e"><path d="M 20.894531 27.542969 L 42 27.542969 L 42 50 L 20.894531 50 Z M 20.894531 27.542969 " clip-rule="nonzero"/></clipPath><clipPath id="4e6946b009"><path d="M 31 30 L 54 30 L 54 53.714844 L 31 53.714844 Z M 31 30 " clip-rule="nonzero"/></clipPath></defs><g clip-path="url(#b40f5b65e1)"><g clip-path="url(#51232a92fe)"><path fill="#ffe6e6" d="M 0 0 L 84.488281 0 L 84.488281 84.488281 L 0 84.488281 Z M 0 0 " fill-opacity="1" fill-rule="nonzero"/></g></g><g clip-path="url(#f4e5772893)"><g clip-path="url(#d302c249f8)"><path fill="#ffb3b3" d="M 5.4375 6.078125 L 78.449219 6.078125 L 78.449219 79.089844 L 5.4375 79.089844 Z M 5.4375 6.078125 " fill-opacity="1" fill-rule="nonzero"/></g></g><g clip-path="url(#47ce24cf31)"><g clip-path="url(#ea4e664dae)"><path fill="#ff8080" d="M 11.082031 11.070312 L 74.109375 11.070312 L 74.109375 74.097656 L 11.082031 74.097656 Z M 11.082031 11.070312 " fill-opacity="1" fill-rule="nonzero"/></g></g><g clip-path="url(#8e05165b48)"><g clip-path="url(#7cfa4f590c)"><path fill="#ff0082" d="M 16.011719 16.3125 L 67.871094 16.3125 L 67.871094 68.171875 L 16.011719 68.171875 Z M 16.011719 16.3125 " fill-opacity="1" fill-rule="nonzero"/></g></g><g clip-path="url(#c212bee761)"><path fill="#ffffff" d="M 63.570312 46.484375 C 63.5 44.578125 62.441406 42.847656 60.703125 41.570312 C 59.898438 40.980469 58.949219 40.488281 57.886719 40.121094 C 59.441406 38.816406 60.433594 36.859375 60.433594 34.667969 C 60.433594 30.742188 57.25 27.5625 53.324219 27.5625 C 49.398438 27.5625 46.21875 30.742188 46.21875 34.667969 C 46.21875 36.859375 47.207031 38.816406 48.765625 40.121094 C 47.699219 40.488281 46.753906 40.980469 45.949219 41.570312 C 44.210938 42.847656 43.152344 44.578125 43.078125 46.484375 C 43.054688 47.152344 43.125 47.71875 43.28125 48.195312 C 45.941406 48.855469 49.460938 49.253906 53.324219 49.253906 C 57.199219 49.253906 60.726562 48.851562 63.386719 48.191406 C 63.53125 47.710938 63.597656 47.148438 63.570312 46.484375 " fill-opacity="1" fill-rule="nonzero"/></g><g clip-path="url(#3a12538a7e)"><path fill="#ffffff" d="M 41.417969 46.484375 C 41.347656 44.578125 40.289062 42.847656 38.546875 41.570312 C 37.742188 40.980469 36.796875 40.488281 35.730469 40.121094 C 37.289062 38.816406 38.277344 36.859375 38.277344 34.667969 C 38.277344 30.742188 35.097656 27.5625 31.171875 27.5625 C 27.246094 27.5625 24.0625 30.742188 24.0625 34.667969 C 24.0625 36.859375 25.054688 38.816406 26.609375 40.121094 C 25.546875 40.488281 24.597656 40.980469 23.796875 41.570312 C 22.054688 42.847656 20.996094 44.578125 20.925781 46.484375 C 20.898438 47.152344 20.972656 47.71875 21.128906 48.195312 C 23.789062 48.855469 27.308594 49.253906 31.171875 49.253906 C 35.042969 49.253906 38.570312 48.851562 41.234375 48.191406 C 41.375 47.710938 41.441406 47.148438 41.417969 46.484375 " fill-opacity="1" fill-rule="nonzero"/></g><g clip-path="url(#4e6946b009)"><path fill="#ffb3b3" d="M 53.140625 50.742188 C 53.066406 48.714844 51.9375 46.875 50.089844 45.515625 C 49.234375 44.890625 48.226562 44.367188 47.097656 43.972656 C 48.75 42.589844 49.804688 40.507812 49.804688 38.179688 C 49.804688 34.007812 46.421875 30.625 42.25 30.625 C 38.074219 30.625 34.691406 34.007812 34.691406 38.179688 C 34.691406 40.507812 35.746094 42.589844 37.398438 43.976562 C 36.269531 44.367188 35.261719 44.890625 34.40625 45.515625 C 32.558594 46.875 31.433594 48.714844 31.355469 50.742188 C 31.328125 51.453125 31.40625 52.050781 31.574219 52.5625 C 34.398438 53.261719 38.140625 53.683594 42.25 53.683594 C 46.363281 53.683594 50.117188 53.257812 52.945312 52.554688 C 53.097656 52.046875 53.167969 51.449219 53.140625 50.742188 " fill-opacity="1" fill-rule="nonzero"/></g></svg>