<svg xmlns="http://www.w3.org/2000/svg" xmlns:xlink="http://www.w3.org/1999/xlink" width="120" zoomAndPan="magnify" viewBox="0 0 90 89.999999" height="120" preserveAspectRatio="xMidYMid meet" version="1.0"><defs><clipPath id="9ed318a5e3"><path d="M 0 0 L 89.25 0 L 89.25 89.25 L 0 89.25 Z M 0 0 " clip-rule="nonzero"/></clipPath></defs><g clip-path="url(#9ed318a5e3)"><path fill="#ffe6e6" d="M 44.730469 89.457031 C 32.78125 89.457031 21.550781 84.804688 13.101562 76.359375 C 4.65625 67.910156 0.00390625 56.675781 0.00390625 44.730469 C 0.00390625 32.785156 4.65625 21.550781 13.101562 13.101562 C 21.550781 4.65625 32.785156 0.00390625 44.730469 0.00390625 C 56.675781 0.00390625 67.910156 4.65625 76.359375 13.101562 C 84.804688 21.550781 89.457031 32.78125 89.457031 44.730469 C 89.457031 56.679688 84.804688 67.910156 76.359375 76.359375 C 67.910156 84.804688 56.679688 89.457031 44.730469 89.457031 " fill-opacity="1" fill-rule="nonzero"/></g><path fill="#ffb3b3" d="M 44.730469 83.546875 C 34.363281 83.546875 24.613281 79.507812 17.28125 72.179688 C 9.953125 64.847656 5.914062 55.097656 5.914062 44.730469 C 5.914062 34.363281 9.953125 24.613281 17.28125 17.28125 C 24.613281 9.953125 34.363281 5.914062 44.730469 5.914062 C 55.097656 5.914062 64.847656 9.953125 72.179688 17.28125 C 79.507812 24.613281 83.546875 34.363281 83.546875 44.730469 C 83.546875 55.097656 79.507812 64.847656 72.179688 72.179688 C 64.847656 79.507812 55.097656 83.546875 44.730469 83.546875 " fill-opacity="1" fill-rule="nonzero"/><path fill="#ff8080" d="M 44.730469 77.636719 C 35.941406 77.636719 27.675781 74.214844 21.460938 68 C 15.246094 61.785156 11.824219 53.519531 11.824219 44.730469 C 11.824219 35.941406 15.246094 27.675781 21.460938 21.460938 C 27.675781 15.246094 35.941406 11.824219 44.730469 11.824219 C 53.519531 11.824219 61.785156 15.246094 68 21.460938 C 74.214844 27.675781 77.636719 35.941406 77.636719 44.730469 C 77.636719 53.519531 74.214844 61.785156 68 68 C 61.785156 74.214844 53.519531 77.636719 44.730469 77.636719 " fill-opacity="1" fill-rule="nonzero"/><path fill="#ff0082" d="M 71.390625 44.730469 C 71.390625 59.453125 59.453125 71.390625 44.730469 71.390625 C 30.007812 71.390625 18.070312 59.453125 18.070312 44.730469 C 18.070312 30.007812 30.007812 18.070312 44.730469 18.070312 C 59.453125 18.070312 71.390625 30.007812 71.390625 44.730469 " fill-opacity="1" fill-rule="nonzero"/><path fill="#ffffff" d="M 61.355469 45.101562 L 54.882812 45.101562 L 54.882812 48.835938 L 62.023438 48.835938 L 61.816406 50.125 L 53.359375 50.125 L 53.359375 39.335938 L 61.695312 39.335938 L 61.695312 40.625 L 54.882812 40.625 L 54.882812 43.8125 L 61.355469 43.8125 Z M 45.175781 50.125 L 40.460938 39.335938 L 42.136719 39.335938 L 44.589844 45.089844 C 45.492188 47.222656 45.855469 48.199219 46.058594 48.804688 L 46.085938 48.804688 C 46.253906 48.277344 46.742188 47.128906 47.464844 45.339844 L 50.058594 39.335938 L 51.6875 39.335938 L 46.898438 50.125 Z M 38.671875 39.335938 L 38.671875 50.125 L 37.148438 50.125 L 37.148438 39.335938 Z M 27.4375 39.335938 L 28.953125 39.335938 L 28.953125 48.828125 L 35.457031 48.828125 L 35.226562 50.125 L 27.4375 50.125 L 27.4375 39.335938 " fill-opacity="1" fill-rule="nonzero"/></svg>