<svg xmlns="http://www.w3.org/2000/svg" xmlns:xlink="http://www.w3.org/1999/xlink" width="113" zoomAndPan="magnify" viewBox="0 0 84.75 84.749999" height="113" preserveAspectRatio="xMidYMid meet" version="1.0"><defs><clipPath id="09dbfa32a4"><path d="M 0 0 L 84.488281 0 L 84.488281 84.488281 L 0 84.488281 Z M 0 0 " clip-rule="nonzero"/></clipPath><clipPath id="8e4550499c"><path d="M 42.242188 0 C 18.914062 0 0 18.914062 0 42.242188 C 0 65.574219 18.914062 84.488281 42.242188 84.488281 C 65.574219 84.488281 84.488281 65.574219 84.488281 42.242188 C 84.488281 18.914062 65.574219 0 42.242188 0 Z M 42.242188 0 " clip-rule="nonzero"/></clipPath><clipPath id="9f5634c81e"><path d="M 5.4375 6.078125 L 78.449219 6.078125 L 78.449219 79.089844 L 5.4375 79.089844 Z M 5.4375 6.078125 " clip-rule="nonzero"/></clipPath><clipPath id="e60f42f18a"><path d="M 41.941406 6.078125 C 21.78125 6.078125 5.4375 22.421875 5.4375 42.582031 C 5.4375 62.746094 21.78125 79.089844 41.941406 79.089844 C 62.105469 79.089844 78.449219 62.746094 78.449219 42.582031 C 78.449219 22.421875 62.105469 6.078125 41.941406 6.078125 Z M 41.941406 6.078125 " clip-rule="nonzero"/></clipPath><clipPath id="af776a34f3"><path d="M 11.082031 11.070312 L 74.109375 11.070312 L 74.109375 74.097656 L 11.082031 74.097656 Z M 11.082031 11.070312 " clip-rule="nonzero"/></clipPath><clipPath id="9063083e64"><path d="M 42.59375 11.070312 C 25.191406 11.070312 11.082031 25.179688 11.082031 42.582031 C 11.082031 59.988281 25.191406 74.097656 42.59375 74.097656 C 60 74.097656 74.109375 59.988281 74.109375 42.582031 C 74.109375 25.179688 60 11.070312 42.59375 11.070312 Z M 42.59375 11.070312 " clip-rule="nonzero"/></clipPath><clipPath id="5e0dacb5b6"><path d="M 16.011719 16.3125 L 67.871094 16.3125 L 67.871094 68.171875 L 16.011719 68.171875 Z M 16.011719 16.3125 " clip-rule="nonzero"/></clipPath><clipPath id="766021dedf"><path d="M 41.941406 16.3125 C 27.621094 16.3125 16.011719 27.921875 16.011719 42.242188 C 16.011719 56.5625 27.621094 68.171875 41.941406 68.171875 C 56.261719 68.171875 67.871094 56.5625 67.871094 42.242188 C 67.871094 27.921875 56.261719 16.3125 41.941406 16.3125 Z M 41.941406 16.3125 " clip-rule="nonzero"/></clipPath><clipPath id="974a8a2c68"><path d="M 39 18.8125 L 42 18.8125 L 42 26 L 39 26 Z M 39 18.8125 " clip-rule="nonzero"/></clipPath><clipPath id="3c9b8e3bdc"><path d="M 55 38 L 61.640625 38 L 61.640625 42 L 55 42 Z M 55 38 " clip-rule="nonzero"/></clipPath><clipPath id="ee0106c098"><path d="M 46 60 L 51 60 L 51 66.671875 L 46 66.671875 Z M 46 60 " clip-rule="nonzero"/></clipPath></defs><g clip-path="url(#09dbfa32a4)"><g clip-path="url(#8e4550499c)"><path fill="#ffe6e6" d="M 0 0 L 84.488281 0 L 84.488281 84.488281 L 0 84.488281 Z M 0 0 " fill-opacity="1" fill-rule="nonzero"/></g></g><g clip-path="url(#9f5634c81e)"><g clip-path="url(#e60f42f18a)"><path fill="#ffb3b3" d="M 5.4375 6.078125 L 78.449219 6.078125 L 78.449219 79.089844 L 5.4375 79.089844 Z M 5.4375 6.078125 " fill-opacity="1" fill-rule="nonzero"/></g></g><g clip-path="url(#af776a34f3)"><g clip-path="url(#9063083e64)"><path fill="#ff8080" d="M 11.082031 11.070312 L 74.109375 11.070312 L 74.109375 74.097656 L 11.082031 74.097656 Z M 11.082031 11.070312 " fill-opacity="1" fill-rule="nonzero"/></g></g><g clip-path="url(#5e0dacb5b6)"><g clip-path="url(#766021dedf)"><path fill="#ff0082" d="M 16.011719 16.3125 L 67.871094 16.3125 L 67.871094 68.171875 L 16.011719 68.171875 Z M 16.011719 16.3125 " fill-opacity="1" fill-rule="nonzero"/></g></g><g clip-path="url(#974a8a2c68)"><path fill="#ffffff" d="M 40.648438 25.335938 C 40.648438 25.335938 40.695312 25.335938 40.695312 25.335938 C 41.078125 25.289062 41.414062 24.953125 41.367188 24.570312 L 40.984375 19.53125 C 40.984375 19.148438 40.597656 18.8125 40.214844 18.859375 C 39.832031 18.910156 39.496094 19.246094 39.542969 19.628906 L 39.925781 24.617188 C 39.976562 25.046875 40.261719 25.335938 40.648438 25.335938 Z M 40.648438 25.335938 " fill-opacity="1" fill-rule="nonzero"/></g><path fill="#ffffff" d="M 44.242188 25.097656 C 44.578125 25.097656 44.914062 24.855469 44.964844 24.472656 L 45.347656 22.074219 C 45.394531 21.691406 45.15625 21.308594 44.722656 21.257812 C 44.339844 21.210938 43.957031 21.453125 43.910156 21.882812 L 43.523438 24.28125 C 43.476562 24.664062 43.714844 25.046875 44.148438 25.097656 C 44.195312 25.097656 44.195312 25.097656 44.242188 25.097656 Z M 44.242188 25.097656 " fill-opacity="1" fill-rule="nonzero"/><path fill="#ffffff" d="M 37.480469 25.769531 C 37.578125 25.769531 37.671875 25.769531 37.769531 25.71875 C 38.152344 25.578125 38.296875 25.144531 38.152344 24.761719 L 37.144531 22.507812 C 37 22.121094 36.523438 21.980469 36.1875 22.121094 C 35.800781 22.265625 35.660156 22.699219 35.800781 23.082031 L 36.808594 25.335938 C 36.953125 25.625 37.195312 25.769531 37.480469 25.769531 Z M 37.480469 25.769531 " fill-opacity="1" fill-rule="nonzero"/><g clip-path="url(#3c9b8e3bdc)"><path fill="#ffffff" d="M 55.851562 41.691406 C 55.945312 41.691406 55.996094 41.691406 56.089844 41.644531 L 60.839844 40.109375 C 61.222656 39.964844 61.414062 39.582031 61.320312 39.199219 C 61.175781 38.8125 60.792969 38.621094 60.40625 38.71875 L 55.660156 40.253906 C 55.277344 40.398438 55.082031 40.78125 55.179688 41.164062 C 55.277344 41.5 55.5625 41.691406 55.851562 41.691406 Z M 55.851562 41.691406 " fill-opacity="1" fill-rule="nonzero"/></g><path fill="#ffffff" d="M 56.714844 45.769531 C 56.714844 45.769531 56.761719 45.769531 56.761719 45.769531 L 59.160156 45.578125 C 59.542969 45.527344 59.878906 45.191406 59.832031 44.761719 C 59.785156 44.378906 59.449219 44.042969 59.015625 44.089844 L 56.617188 44.28125 C 56.234375 44.328125 55.898438 44.664062 55.945312 45.097656 C 55.996094 45.480469 56.332031 45.769531 56.714844 45.769531 Z M 56.714844 45.769531 " fill-opacity="1" fill-rule="nonzero"/><path fill="#ffffff" d="M 54.652344 38.71875 C 54.796875 38.71875 54.988281 38.671875 55.082031 38.574219 L 57.050781 37.085938 C 57.386719 36.847656 57.433594 36.367188 57.195312 36.03125 C 56.953125 35.695312 56.476562 35.648438 56.140625 35.886719 L 54.171875 37.375 C 53.835938 37.613281 53.789062 38.09375 54.027344 38.429688 C 54.21875 38.621094 54.460938 38.71875 54.652344 38.71875 Z M 54.652344 38.71875 " fill-opacity="1" fill-rule="nonzero"/><g clip-path="url(#ee0106c098)"><path fill="#ffffff" d="M 49.425781 66.34375 C 49.519531 66.34375 49.617188 66.34375 49.710938 66.296875 C 50.09375 66.152344 50.289062 65.722656 50.09375 65.335938 L 48.175781 60.734375 C 48.03125 60.347656 47.601562 60.15625 47.21875 60.347656 C 46.835938 60.492188 46.640625 60.925781 46.835938 61.308594 L 48.753906 65.914062 C 48.847656 66.152344 49.136719 66.34375 49.425781 66.34375 Z M 49.425781 66.34375 " fill-opacity="1" fill-rule="nonzero"/></g><path fill="#ffffff" d="M 44.53125 65.433594 C 44.578125 65.433594 44.628906 65.433594 44.628906 65.433594 C 45.011719 65.386719 45.300781 65.003906 45.25 64.570312 L 44.867188 62.171875 C 44.820312 61.789062 44.4375 61.5 44.003906 61.546875 C 43.621094 61.597656 43.332031 61.980469 43.378906 62.410156 L 43.765625 64.808594 C 43.859375 65.195312 44.195312 65.433594 44.53125 65.433594 Z M 44.53125 65.433594 " fill-opacity="1" fill-rule="nonzero"/><path fill="#ffffff" d="M 52.015625 62.125 C 52.207031 62.125 52.351562 62.078125 52.492188 61.933594 C 52.78125 61.644531 52.828125 61.214844 52.542969 60.878906 L 50.910156 59.054688 C 50.625 58.765625 50.191406 58.71875 49.855469 59.007812 C 49.566406 59.292969 49.519531 59.726562 49.808594 60.0625 L 51.4375 61.882812 C 51.582031 62.078125 51.824219 62.125 52.015625 62.125 Z M 52.015625 62.125 " fill-opacity="1" fill-rule="nonzero"/><path fill="#ffffff" d="M 59.402344 56.65625 C 59.6875 56.65625 59.929688 56.511719 60.070312 56.273438 C 60.265625 55.9375 60.121094 55.457031 59.785156 55.265625 L 55.371094 52.914062 C 54.988281 52.722656 54.554688 52.867188 54.363281 53.203125 C 54.171875 53.539062 54.316406 54.019531 54.652344 54.210938 L 59.066406 56.558594 C 59.160156 56.65625 59.304688 56.65625 59.402344 56.65625 Z M 59.402344 56.65625 " fill-opacity="1" fill-rule="nonzero"/><path fill="#ffffff" d="M 55.082031 59.101562 C 55.277344 59.101562 55.515625 59.007812 55.660156 58.863281 C 55.945312 58.574219 55.898438 58.09375 55.5625 57.808594 L 53.742188 56.226562 C 53.453125 55.9375 52.972656 55.984375 52.6875 56.273438 C 52.398438 56.558594 52.445312 57.039062 52.78125 57.328125 L 54.605469 58.910156 C 54.75 59.054688 54.941406 59.101562 55.082031 59.101562 Z M 55.082031 59.101562 " fill-opacity="1" fill-rule="nonzero"/><path fill="#ffffff" d="M 58.679688 51.765625 C 59.015625 51.765625 59.351562 51.523438 59.402344 51.140625 C 59.449219 50.757812 59.160156 50.375 58.777344 50.324219 L 56.332031 49.941406 C 55.945312 49.894531 55.5625 50.179688 55.515625 50.566406 C 55.46875 50.949219 55.753906 51.332031 56.140625 51.378906 L 58.585938 51.765625 C 58.632812 51.765625 58.679688 51.765625 58.679688 51.765625 Z M 58.679688 51.765625 " fill-opacity="1" fill-rule="nonzero"/><path fill="#ffffff" d="M 51.535156 30.371094 C 51.679688 30.371094 51.824219 30.324219 51.964844 30.230469 L 55.996094 27.304688 C 56.332031 27.0625 56.378906 26.582031 56.140625 26.296875 C 55.898438 25.960938 55.417969 25.910156 55.132812 26.152344 L 51.101562 29.078125 C 50.765625 29.316406 50.71875 29.796875 50.957031 30.085938 C 51.101562 30.277344 51.34375 30.371094 51.535156 30.371094 Z M 51.535156 30.371094 " fill-opacity="1" fill-rule="nonzero"/><path fill="#ffffff" d="M 53.644531 33.296875 C 53.742188 33.296875 53.835938 33.296875 53.933594 33.25 L 56.1875 32.292969 C 56.570312 32.148438 56.714844 31.714844 56.570312 31.332031 C 56.425781 30.949219 55.996094 30.804688 55.613281 30.949219 L 53.355469 31.90625 C 52.972656 32.050781 52.828125 32.484375 52.972656 32.867188 C 53.070312 33.15625 53.355469 33.296875 53.644531 33.296875 Z M 53.644531 33.296875 " fill-opacity="1" fill-rule="nonzero"/><path fill="#ffffff" d="M 49.519531 27.925781 C 49.761719 27.925781 50 27.832031 50.144531 27.589844 L 51.535156 25.578125 C 51.773438 25.242188 51.679688 24.761719 51.34375 24.570312 C 51.007812 24.328125 50.527344 24.425781 50.335938 24.761719 L 48.945312 26.773438 C 48.703125 27.109375 48.800781 27.589844 49.136719 27.78125 C 49.230469 27.878906 49.375 27.925781 49.519531 27.925781 Z M 49.519531 27.925781 " fill-opacity="1" fill-rule="nonzero"/><path fill="#ffffff" d="M 26.691406 46.679688 C 26.304688 47.6875 25.921875 49.558594 27.167969 51.042969 C 27.3125 49.988281 27.886719 49.367188 27.886719 49.316406 C 28.175781 49.03125 28.609375 49.03125 28.894531 49.269531 C 29.183594 49.558594 29.230469 49.988281 28.945312 50.324219 C 28.945312 50.324219 28.367188 50.996094 28.703125 52.339844 C 28.800781 52.53125 29.136719 52.914062 29.566406 53.394531 C 29.855469 52.820312 30.285156 52.386719 30.8125 52.101562 C 32.207031 51.332031 33.835938 51.90625 33.882812 51.957031 C 34.269531 52.101562 34.460938 52.53125 34.316406 52.914062 C 34.171875 53.300781 33.738281 53.492188 33.355469 53.347656 C 33.355469 53.347656 32.300781 52.964844 31.484375 53.441406 C 31.148438 53.632812 30.910156 53.921875 30.71875 54.402344 C 31.484375 54.882812 32.445312 55.167969 33.546875 54.976562 C 33.738281 54.929688 33.980469 54.976562 34.125 55.121094 C 34.125 55.121094 35.5625 56.226562 36.859375 55.9375 C 37.527344 55.792969 38.105469 55.265625 38.535156 54.402344 C 38.585938 54.257812 38.726562 54.164062 38.824219 54.113281 L 38.824219 33.296875 L 37.863281 32.097656 C 36.953125 30.949219 35.371094 30.371094 33.933594 30.660156 C 32.875 30.851562 32.207031 31.425781 31.917969 32.292969 L 31.820312 34.496094 C 31.820312 34.882812 31.484375 35.21875 31.101562 35.21875 C 31.101562 35.21875 31.101562 35.21875 31.054688 35.21875 C 30.671875 35.21875 30.335938 34.832031 30.335938 34.449219 L 30.382812 33.394531 C 29.664062 33.96875 28.703125 34.785156 28.367188 35.792969 C 28.175781 36.414062 28.175781 36.992188 28.367188 37.664062 C 28.992188 37.472656 29.902344 37.421875 31.199219 37.949219 C 31.582031 38.09375 31.773438 38.527344 31.582031 38.910156 C 31.484375 39.199219 31.199219 39.339844 30.910156 39.339844 C 30.8125 39.339844 30.71875 39.339844 30.621094 39.292969 C 29.183594 38.71875 28.558594 39.101562 28.511719 39.148438 C 28.367188 39.292969 25.058594 42.507812 26.929688 45.050781 C 27.601562 45.433594 29.230469 46.25 30.144531 45.625 C 30.480469 45.386719 30.957031 45.480469 31.148438 45.816406 C 31.390625 46.152344 31.292969 46.632812 30.957031 46.824219 C 30.429688 47.207031 29.855469 47.304688 29.28125 47.304688 C 28.273438 47.351562 27.359375 46.96875 26.691406 46.679688 Z M 37.480469 34.882812 C 37.480469 34.882812 36.425781 34.496094 35.609375 34.976562 C 35.179688 35.21875 34.890625 35.695312 34.699219 36.367188 C 34.601562 36.703125 34.316406 36.945312 33.980469 36.945312 C 33.933594 36.945312 33.882812 36.945312 33.835938 36.945312 C 33.453125 36.847656 33.210938 36.464844 33.261719 36.082031 C 33.5 34.976562 34.074219 34.160156 34.890625 33.730469 C 36.28125 32.960938 37.914062 33.539062 37.960938 33.585938 C 38.34375 33.730469 38.535156 34.160156 38.390625 34.546875 C 38.296875 34.832031 37.863281 35.023438 37.480469 34.882812 Z M 35.5625 47.734375 C 35.800781 47.398438 36.234375 47.304688 36.570312 47.496094 C 36.90625 47.734375 37 48.167969 36.808594 48.503906 C 36.808594 48.503906 35.753906 50.179688 36.664062 50.902344 C 37 51.140625 37.050781 51.621094 36.761719 51.957031 C 36.617188 52.148438 36.425781 52.242188 36.1875 52.242188 C 36.042969 52.242188 35.851562 52.195312 35.707031 52.101562 C 34.21875 50.804688 34.9375 48.742188 35.5625 47.734375 Z M 33.453125 43.753906 C 33.453125 43.753906 35.417969 42.796875 35.324219 41.164062 C 34.9375 41.261719 34.460938 41.308594 33.980469 41.308594 C 33.597656 41.308594 33.261719 40.972656 33.261719 40.589844 C 33.261719 40.203125 33.597656 39.871094 33.980469 39.820312 C 36.042969 39.773438 36.859375 38.910156 36.90625 38.8125 C 37.144531 38.527344 37.625 38.476562 37.914062 38.71875 C 38.25 38.957031 38.296875 39.4375 38.007812 39.773438 C 37.960938 39.820312 37.578125 40.253906 36.761719 40.683594 C 37.144531 42.988281 35.226562 44.570312 34.074219 45.097656 C 33.980469 45.144531 33.882812 45.144531 33.738281 45.144531 C 33.453125 45.144531 33.210938 45 33.070312 44.714844 C 32.925781 44.378906 33.070312 43.945312 33.453125 43.753906 Z M 31.484375 43.273438 C 29.566406 42.601562 28.464844 43.226562 28.417969 43.226562 C 28.320312 43.324219 28.175781 43.324219 28.03125 43.324219 C 27.792969 43.324219 27.554688 43.179688 27.410156 42.988281 C 27.167969 42.652344 27.3125 42.171875 27.648438 41.980469 C 27.695312 41.933594 29.28125 40.972656 31.964844 41.835938 C 32.347656 41.980469 32.542969 42.363281 32.445312 42.746094 C 32.300781 43.226562 31.871094 43.417969 31.484375 43.273438 Z M 31.484375 43.273438 " fill-opacity="1" fill-rule="nonzero"/><path fill="#ffffff" d="M 52.351562 45.144531 C 54.414062 42.554688 50.957031 39.292969 50.816406 39.148438 C 50.574219 38.910156 50.527344 38.574219 50.671875 38.285156 C 51.152344 37.421875 51.246094 36.558594 50.957031 35.792969 C 50.289062 33.921875 47.792969 32.820312 47.792969 32.820312 C 47.601562 32.722656 47.457031 32.578125 47.363281 32.339844 C 47.074219 31.378906 46.402344 30.851562 45.347656 30.613281 C 43.859375 30.324219 42.277344 30.898438 41.414062 32.050781 L 40.453125 33.25 L 40.453125 53.96875 C 40.597656 54.019531 40.695312 54.113281 40.742188 54.257812 C 41.175781 55.121094 41.75 55.648438 42.421875 55.792969 C 43.714844 56.082031 45.15625 55.027344 45.15625 54.976562 C 45.347656 54.832031 45.539062 54.785156 45.730469 54.832031 C 48.609375 55.410156 50.671875 52.195312 50.671875 52.148438 C 50.71875 52.050781 50.816406 51.957031 50.910156 51.90625 C 54.363281 49.941406 52.351562 46.054688 52.253906 45.863281 C 52.109375 45.722656 52.15625 45.386719 52.351562 45.144531 Z M 48.511719 43.128906 L 46.164062 46.296875 L 43.8125 43.128906 C 43.378906 42.507812 43.285156 41.691406 43.667969 41.066406 C 44.050781 40.398438 44.914062 40.300781 45.492188 40.828125 L 46.210938 41.546875 L 46.929688 40.828125 C 47.457031 40.300781 48.367188 40.398438 48.753906 41.066406 C 48.992188 41.691406 48.945312 42.507812 48.511719 43.128906 Z M 48.511719 43.128906 " fill-opacity="1" fill-rule="nonzero"/></svg>