<svg xmlns="http://www.w3.org/2000/svg" xmlns:xlink="http://www.w3.org/1999/xlink" width="113" zoomAndPan="magnify" viewBox="0 0 84.75 84.749999" height="113" preserveAspectRatio="xMidYMid meet" version="1.0"><defs><clipPath id="bc22311b42"><path d="M 0 0 L 84.488281 0 L 84.488281 84.488281 L 0 84.488281 Z M 0 0 " clip-rule="nonzero"/></clipPath><clipPath id="360bfa9a65"><path d="M 42.242188 0 C 18.914062 0 0 18.914062 0 42.242188 C 0 65.574219 18.914062 84.488281 42.242188 84.488281 C 65.574219 84.488281 84.488281 65.574219 84.488281 42.242188 C 84.488281 18.914062 65.574219 0 42.242188 0 Z M 42.242188 0 " clip-rule="nonzero"/></clipPath><clipPath id="8fbf092b4e"><path d="M 5.4375 6.078125 L 78.449219 6.078125 L 78.449219 79.089844 L 5.4375 79.089844 Z M 5.4375 6.078125 " clip-rule="nonzero"/></clipPath><clipPath id="ae60fc30df"><path d="M 41.941406 6.078125 C 21.78125 6.078125 5.4375 22.421875 5.4375 42.582031 C 5.4375 62.746094 21.78125 79.089844 41.941406 79.089844 C 62.105469 79.089844 78.449219 62.746094 78.449219 42.582031 C 78.449219 22.421875 62.105469 6.078125 41.941406 6.078125 Z M 41.941406 6.078125 " clip-rule="nonzero"/></clipPath><clipPath id="87f5a99389"><path d="M 11.082031 11.070312 L 74.109375 11.070312 L 74.109375 74.097656 L 11.082031 74.097656 Z M 11.082031 11.070312 " clip-rule="nonzero"/></clipPath><clipPath id="a33dcd475a"><path d="M 42.59375 11.070312 C 25.191406 11.070312 11.082031 25.179688 11.082031 42.582031 C 11.082031 59.988281 25.191406 74.097656 42.59375 74.097656 C 60 74.097656 74.109375 59.988281 74.109375 42.582031 C 74.109375 25.179688 60 11.070312 42.59375 11.070312 Z M 42.59375 11.070312 " clip-rule="nonzero"/></clipPath><clipPath id="88b7980259"><path d="M 16.011719 16.3125 L 67.871094 16.3125 L 67.871094 68.171875 L 16.011719 68.171875 Z M 16.011719 16.3125 " clip-rule="nonzero"/></clipPath><clipPath id="249799db4f"><path d="M 41.941406 16.3125 C 27.621094 16.3125 16.011719 27.921875 16.011719 42.242188 C 16.011719 56.5625 27.621094 68.171875 41.941406 68.171875 C 56.261719 68.171875 67.871094 56.5625 67.871094 42.242188 C 67.871094 27.921875 56.261719 16.3125 41.941406 16.3125 Z M 41.941406 16.3125 " clip-rule="nonzero"/></clipPath><clipPath id="64fc6a776b"><path d="M 20.929688 20.929688 L 63.554688 20.929688 L 63.554688 63.554688 L 20.929688 63.554688 Z M 20.929688 20.929688 " clip-rule="nonzero"/></clipPath></defs><g clip-path="url(#bc22311b42)"><g clip-path="url(#360bfa9a65)"><path fill="#ffe6e6" d="M 0 0 L 84.488281 0 L 84.488281 84.488281 L 0 84.488281 Z M 0 0 " fill-opacity="1" fill-rule="nonzero"/></g></g><g clip-path="url(#8fbf092b4e)"><g clip-path="url(#ae60fc30df)"><path fill="#ffb3b3" d="M 5.4375 6.078125 L 78.449219 6.078125 L 78.449219 79.089844 L 5.4375 79.089844 Z M 5.4375 6.078125 " fill-opacity="1" fill-rule="nonzero"/></g></g><g clip-path="url(#87f5a99389)"><g clip-path="url(#a33dcd475a)"><path fill="#ff8080" d="M 11.082031 11.070312 L 74.109375 11.070312 L 74.109375 74.097656 L 11.082031 74.097656 Z M 11.082031 11.070312 " fill-opacity="1" fill-rule="nonzero"/></g></g><g clip-path="url(#88b7980259)"><g clip-path="url(#249799db4f)"><path fill="#ff0082" d="M 16.011719 16.3125 L 67.871094 16.3125 L 67.871094 68.171875 L 16.011719 68.171875 Z M 16.011719 16.3125 " fill-opacity="1" fill-rule="nonzero"/></g></g><g clip-path="url(#64fc6a776b)"><path fill="#ffffff" d="M 42.238281 63.542969 C 36.542969 63.542969 31.191406 61.328125 27.167969 57.304688 C 23.148438 53.28125 20.929688 47.929688 20.929688 42.238281 C 20.929688 36.542969 23.148438 31.191406 27.167969 27.167969 C 31.191406 23.148438 36.542969 20.929688 42.238281 20.929688 C 47.929688 20.929688 53.28125 23.148438 57.304688 27.167969 C 61.328125 31.191406 63.542969 36.542969 63.542969 42.238281 C 63.542969 47.929688 61.328125 53.28125 57.304688 57.304688 C 53.28125 61.328125 47.929688 63.542969 42.238281 63.542969 Z M 42.238281 22.296875 C 31.242188 22.296875 22.292969 31.242188 22.292969 42.238281 C 22.292969 53.230469 31.242188 62.179688 42.238281 62.179688 C 53.230469 62.179688 62.179688 53.230469 62.179688 42.238281 C 62.179688 31.242188 53.230469 22.296875 42.238281 22.296875 Z M 42.238281 22.296875 " fill-opacity="1" fill-rule="nonzero"/></g><path fill="#ffffff" d="M 31.617188 48.324219 C 31.039062 48.261719 30.597656 47.769531 30.597656 47.179688 L 30.597656 33.792969 L 29.453125 33.792969 L 29.453125 49.097656 C 31.347656 49.148438 33.238281 49.355469 35.71875 49.847656 C 38.078125 50.316406 40.558594 50.863281 42.261719 51.5 C 42.261719 51.5 38.265625 49.761719 35.777344 49.097656 C 34.269531 48.6875 32.863281 48.460938 31.617188 48.324219 Z M 31.617188 48.324219 " fill-opacity="1" fill-rule="nonzero"/><path fill="#ffffff" d="M 53.800781 33.792969 L 53.800781 47.214844 C 53.800781 47.785156 53.375 48.273438 52.8125 48.347656 C 51.628906 48.5 50.324219 48.742188 48.9375 49.105469 C 46.378906 49.773438 43.933594 50.65625 42.273438 51.511719 C 42.273438 51.511719 46.515625 50.242188 49.046875 49.753906 C 51.390625 49.3125 53.230469 49.132812 55.019531 49.097656 L 55.019531 33.792969 Z M 53.800781 33.792969 " fill-opacity="1" fill-rule="nonzero"/><path fill="#ffffff" d="M 41.898438 50.769531 C 41.898438 45.851562 41.898438 39.9375 41.90625 35.019531 C 40.40625 34.5 38.65625 34.003906 36.679688 33.621094 C 34.753906 33.246094 32.929688 33.058594 31.386719 32.964844 C 31.386719 37.882812 31.386719 42.800781 31.386719 47.726562 C 33.042969 47.878906 35.121094 48.21875 37.355469 48.910156 C 39.117188 49.472656 40.636719 50.128906 41.898438 50.769531 Z M 41.898438 50.769531 " fill-opacity="1" fill-rule="nonzero"/><path fill="#ffffff" d="M 53.027344 47.726562 C 53.027344 42.808594 53.027344 37.890625 53.027344 32.964844 C 51.476562 33.050781 49.652344 33.246094 47.734375 33.621094 C 45.757812 34.003906 44.011719 34.5 42.511719 35.019531 C 42.511719 39.9375 42.511719 45.859375 42.511719 50.769531 C 43.992188 50.105469 45.75 49.421875 47.75 48.84375 C 49.652344 48.304688 51.476562 47.949219 53.027344 47.726562 Z M 53.027344 47.726562 " fill-opacity="1" fill-rule="nonzero"/></svg>